PathFileType	4	(X/Y/Z)	C:/Users/opensim2020/Desktop/walking_exp_matlab/subject03_walking07_straight_03.trc	
DataRate	CameraRate	NumFrames	NumMarkers	Units	OrigDataRate	OrigDataStartFrame	OrigNumFrames	
100.00	100.00	5	46	mm	100.00	2165	306	
Frame#	Time	LFHD			RFHD			LBHD			RBHD			C7			T10			CLAV			STRN			RBAK			LSHO			LUPA			LELB			LFRM			LWRA			LWRB			LFIN			RSHO			RUPA			RELB			RFRM			RWRA			RWRB			RFIN			LASI			RASI			LPSI			RPSI			LTHI			LKNE			LTIB			LANK			LHEE			LTOE			RTHI			RKNE			RTIB			RANK			RHEE			RTOE			*39			*40			*41			*42			*43			*44			*45			
		X1	Y1	Z1	X2	Y2	Z2	X3	Y3	Z3	X4	Y4	Z4	X5	Y5	Z5	X6	Y6	Z6	X7	Y7	Z7	X8	Y8	Z8	X9	Y9	Z9	X10	Y10	Z10	X11	Y11	Z11	X12	Y12	Z12	X13	Y13	Z13	X14	Y14	Z14	X15	Y15	Z15	X16	Y16	Z16	X17	Y17	Z17	X18	Y18	Z18	X19	Y19	Z19	X20	Y20	Z20	X21	Y21	Z21	X22	Y22	Z22	X23	Y23	Z23	X24	Y24	Z24	X25	Y25	Z25	X26	Y26	Z26	X27	Y27	Z27	X28	Y28	Z28	X29	Y29	Z29	X30	Y30	Z30	X31	Y31	Z31	X32	Y32	Z32	X33	Y33	Z33	X34	Y34	Z34	X35	Y35	Z35	X36	Y36	Z36	X37	Y37	Z37	X38	Y38	Z38	X39	Y39	Z39	X40	Y40	Z40	X41	Y41	Z41	X42	Y42	Z42	X43	Y43	Z43	X44	Y44	Z44	X45	Y45	Z45	X46	Y46	Z46	

1	0.000	1396.00806	-1230.11157	1620.24548	1528.35522	-1223.88928	1619.32617	1404.00818	-1351.55640	1561.91467	1534.56482	-1341.96680	1561.65479	1460.17786	-1372.49866	1419.55176	1460.59033	-1442.67029	1114.14185	1449.23425	-1250.52588	1334.91370	1441.25720	-1231.81799	1164.32019	1564.13562	-1429.77161	1253.68982	1297.10071	-1307.26929	1380.75793	1230.85742	-1364.44226	1189.97119	1224.76355	-1389.32581	1067.62585	1229.64563	-1377.58716	937.63007	1267.09167	-1366.22998	821.09033	1220.94116	-1396.81006	824.14819	1234.49719	-1384.53052	741.68048	1612.07520	-1280.50330	1358.65051	1689.08435	-1278.28088	1137.98572	1701.40393	-1263.49756	1026.19092	1702.55908	-1247.44629	890.46942	1662.58020	-1223.01746	795.05933	1710.85596	-1247.08386	789.81256	1696.89954	-1227.24121	718.56238	1339.71692	-1296.36035	936.80615	1574.13318	-1290.24451	933.19183	1390.23462	-1456.58606	965.27209	1539.61438	-1447.99316	979.02094	1285.77039	-1279.17712	648.75629	1317.98181	-1215.23047	483.24786	1317.29028	-1252.49109	286.96243	1356.95984	-1257.86096	77.17091	1397.13965	-1296.43994	40.02615	1373.04419	-1111.12622	53.43403	1615.76099	-1384.94470	646.30701	1578.97156	-1397.17273	468.75684	1586.48450	-1467.79321	288.60324	1540.14880	-1519.09692	75.67112	1489.51257	-1564.38477	42.28432	1524.65906	-1379.03174	37.10976																					 
2	0.010	1395.94727	-1224.46436	1619.23120	1528.17810	-1218.26563	1618.10156	1403.81750	-1346.15271	1560.86157	1534.46252	-1336.49988	1560.52283	1460.11829	-1366.89856	1418.50732	1460.27393	-1437.18750	1113.08350	1448.82349	-1248.22095	1332.75769	1440.82776	-1227.79260	1162.56946	1564.05652	-1424.24719	1252.74829	1296.95374	-1301.88660	1379.51477	1231.29675	-1359.32141	1188.66492	1225.86865	-1383.95227	1066.14001	1230.76721	-1372.67236	936.21564	1268.26111	-1361.76880	819.55872	1222.26111	-1392.30408	822.79016	1235.72668	-1380.25500	740.20111	1611.87500	-1274.83264	1357.50000	1689.03296	-1272.13782	1136.95215	1701.18884	-1257.11951	1025.22351	1702.14038	-1240.73376	889.47736	1661.83875	-1216.24792	794.17285	1710.34229	-1240.10413	788.89618	1696.07153	-1220.01978	717.79431	1339.60022	-1290.64233	935.77094	1574.16028	-1284.66504	932.43854	1389.96545	-1450.93481	963.88660	1539.31653	-1442.57959	977.83008	1285.24402	-1272.44116	648.18048	1317.75000	-1206.76868	483.71289	1316.11768	-1238.53333	286.47620	1354.59534	-1237.15149	76.43017	1394.52698	-1274.93909	38.88372	1371.58398	-1089.79956	54.11878	1615.73059	-1380.03796	645.63977	1579.06042	-1393.37268	468.14270	1586.40149	-1465.63818	288.46143	1540.05469	-1518.87183	76.03410	1489.43811	-1564.22485	42.90207	1524.62756	-1378.86780	36.87582																					 
3	0.020	1395.70691	-1218.96838	1618.13806	1527.97668	-1212.67200	1616.95166	1403.53943	-1340.49060	1559.68811	1534.21741	-1330.88123	1559.29321	1459.94373	-1361.16650	1417.37036	1459.89575	-1431.52466	1111.98572	1449.05652	-1239.06042	1332.57251	1441.03601	-1221.92749	1161.40649	1563.91772	-1418.59680	1251.68872	1296.68274	-1296.44067	1378.23242	1232.00537	-1353.03552	1186.92334	1226.57422	-1378.64294	1064.67786	1231.51123	-1367.73914	934.83185	1268.57690	-1356.38049	818.12549	1223.08765	-1387.63013	821.32568	1236.33545	-1375.95776	738.73737	1611.69409	-1268.85571	1356.32544	1688.90930	-1265.94922	1135.88611	1700.93030	-1250.70044	1024.13831	1701.80652	-1233.96118	888.48822	1661.13000	-1209.37500	793.25903	1709.71851	-1232.94263	787.88629	1695.37415	-1212.77441	716.99506	1339.46802	-1284.47852	935.04980	1574.04504	-1278.97986	931.65875	1389.68152	-1445.11780	962.39435	1539.04126	-1437.02454	976.50702	1284.52649	-1265.99146	647.28503	1317.80273	-1198.31860	483.89014	1314.99011	-1224.78003	286.17465	1352.22620	-1216.66479	75.99751	1392.18127	-1253.91113	38.53616	1370.30542	-1068.96167	54.43793	1615.56958	-1374.94006	644.86755	1579.01868	-1389.38171	467.42361	1586.28418	-1463.39099	288.27481	1539.88806	-1518.46338	76.20549	1489.27368	-1563.99500	43.34902	1524.73840	-1378.69678	36.80826																					 
4	0.030	1395.41028	-1213.13257	1616.98157	1527.87903	-1207.06323	1615.82715	1403.16174	-1334.81799	1558.51367	1533.79749	-1325.12476	1558.05444	1459.68726	-1355.29138	1416.19019	1459.48230	-1425.65991	1110.76282	1448.30823	-1236.67334	1330.32727	1440.80664	-1215.96265	1160.26929	1563.58862	-1412.88098	1250.58655	1296.36206	-1290.75427	1376.96680	1232.01453	-1347.91040	1185.49316	1227.02893	-1373.10974	1063.20264	1231.74927	-1362.52966	933.33124	1268.65979	-1351.34180	816.49634	1223.50427	-1382.87292	819.91522	1236.61816	-1371.45435	737.32910	1611.37964	-1263.13416	1355.22021	1688.68555	-1259.75061	1134.74634	1700.65295	-1244.23279	1023.04675	1701.04639	-1227.05786	887.31476	1660.32996	-1202.33240	792.27991	1709.07104	-1225.69092	786.83539	1694.56738	-1205.23132	715.79803	1339.29761	-1278.54468	933.94183	1573.90405	-1273.06323	930.81830	1389.37341	-1439.19873	960.84753	1538.78308	-1431.33557	975.14911	1283.73291	-1259.69409	646.26331	1317.72351	-1190.10962	483.85187	1313.90247	-1211.21204	285.91095	1349.89294	-1196.50415	75.88421	1389.72437	-1233.65576	38.29081	1368.17383	-1048.22095	54.68192	1615.48450	-1369.78833	644.13940	1579.05286	-1385.33655	466.74857	1586.19995	-1461.08618	288.14938	1539.76526	-1518.04041	76.50977	1489.15125	-1563.76233	43.97401	1524.83057	-1378.52612	36.73230																					 
5	0.040	1395.12109	-1207.14795	1616.01221	1527.49475	-1201.23572	1614.67529	1402.72656	-1328.87231	1557.25818	1533.38538	-1319.31519	1556.81104	1459.27979	-1349.35681	1415.03357	1459.11780	-1419.72351	1109.57056	1447.96887	-1230.61914	1329.23157	1440.53711	-1210.16577	1159.00220	1563.18481	-1407.06238	1249.50867	1295.92407	-1284.78027	1375.51025	1231.87207	-1342.66675	1184.07227	1227.14075	-1367.47522	1061.73535	1231.68640	-1357.15625	931.84784	1268.39392	-1346.18811	814.84851	1223.53870	-1377.93359	818.50482	1236.40991	-1366.69312	735.87872	1611.03882	-1257.06494	1353.90491	1688.41699	-1253.50610	1133.53784	1700.26697	-1237.70642	1021.85327	1700.49304	-1220.14185	886.25867	1659.56958	-1195.27332	791.31592	1708.39221	-1218.47363	785.67999	1693.63428	-1197.88892	714.77942	1339.06836	-1272.34851	933.12323	1573.75635	-1267.39990	929.83313	1389.03223	-1433.18518	959.32452	1538.39807	-1425.54138	973.75323	1282.67957	-1253.58154	644.94684	1317.51392	-1182.54602	483.65244	1312.78821	-1197.94556	285.76440	1347.55847	-1176.82678	76.05086	1387.34851	-1213.20837	37.94447	1366.25256	-1027.83521	55.11115	1615.46411	-1364.49634	643.37994	1579.15198	-1381.15161	466.04227	1586.11316	-1458.59827	287.95920	1539.66479	-1517.76208	76.83146	1488.88098	-1563.61060	44.55732	1524.73328	-1378.38843	36.41074																					 
